<svg width="24" height="24" viewBox="0 0 24 24" fill="none" xmlns="http://www.w3.org/2000/svg">
<path fill-rule="evenodd" clip-rule="evenodd" d="M6.99785 16.0612C6.78764 16.2683 6.75 16.4161 6.75 16.5C6.75 16.5839 6.78764 16.7317 6.99785 16.9388C7.2107 17.1485 7.55717 17.3719 8.04582 17.5755C9.01984 17.9813 10.4174 18.25 12 18.25C13.5826 18.25 14.9802 17.9813 15.9542 17.5755C16.4428 17.3719 16.7893 17.1485 17.0022 16.9388C17.2124 16.7317 17.25 16.5839 17.25 16.5C17.25 16.4161 17.2124 16.2683 17.0022 16.0612C16.7893 15.8515 16.4428 15.6281 15.9542 15.4245C14.9802 15.0187 13.5826 14.75 12 14.75C10.4174 14.75 9.01984 15.0187 8.04582 15.4245C7.55717 15.6281 7.2107 15.8515 6.99785 16.0612ZM7.4689 14.0399C8.66645 13.5409 10.2689 13.25 12 13.25C13.7311 13.25 15.3335 13.5409 16.5311 14.0399C17.1282 14.2887 17.6604 14.6041 18.0548 14.9926C18.4519 15.3837 18.75 15.8936 18.75 16.5C18.75 17.1064 18.4519 17.6163 18.0548 18.0074C17.6604 18.3959 17.1282 18.7113 16.5311 18.9601C15.3335 19.4591 13.7311 19.75 12 19.75C10.2689 19.75 8.66645 19.4591 7.4689 18.9601C6.87176 18.7113 6.33955 18.3959 5.94517 18.0074C5.54815 17.6163 5.25 17.1064 5.25 16.5C5.25 15.8936 5.54815 15.3837 5.94517 14.9926C6.33955 14.6041 6.87176 14.2887 7.4689 14.0399Z" fill="black"/>
<path fill-rule="evenodd" clip-rule="evenodd" d="M12 5.75C10.7574 5.75 9.75 6.75736 9.75 8C9.75 9.24264 10.7574 10.25 12 10.25C13.2426 10.25 14.25 9.24264 14.25 8C14.25 6.75736 13.2426 5.75 12 5.75ZM8.25 8C8.25 5.92893 9.92893 4.25 12 4.25C14.0711 4.25 15.75 5.92893 15.75 8C15.75 10.0711 14.0711 11.75 12 11.75C9.92893 11.75 8.25 10.0711 8.25 8Z" fill="black"/>
<path fill-rule="evenodd" clip-rule="evenodd" d="M6.44547 13.2617C5.20689 13.3133 4.06913 13.5364 3.18592 13.8897C2.68122 14.0915 2.22245 14.3507 1.87759 14.6768C1.53115 15.0045 1.25 15.4514 1.25 16.0002C1.25 16.5491 1.53115 16.996 1.87759 17.3236C2.22245 17.6498 2.68122 17.9089 3.18592 18.1108C3.68571 18.3107 4.26701 18.469 4.90197 18.578C4.40834 18.0455 4.09852 17.4506 4.01985 16.8197C3.92341 16.7872 3.83104 16.7533 3.74301 16.7181C3.34289 16.558 3.06943 16.3862 2.90826 16.2338C2.7498 16.084 2.74999 16.0048 2.75 16.0003L2.75 16.0002L2.75 16.0002C2.74999 15.9956 2.7498 15.9165 2.90826 15.7667C3.06943 15.6142 3.34289 15.4424 3.74301 15.2824C3.94597 15.2012 4.17201 15.1268 4.41787 15.0611C4.83157 14.3712 5.53447 13.7562 6.44547 13.2617Z" fill="black"/>
<path fill-rule="evenodd" clip-rule="evenodd" d="M19.9802 16.8197C19.9015 17.4506 19.5917 18.0455 19.0981 18.578C19.733 18.469 20.3143 18.3107 20.8141 18.1108C21.3188 17.9089 21.7776 17.6498 22.1224 17.3236C22.4689 16.996 22.75 16.5491 22.75 16.0002C22.75 15.4514 22.4689 15.0045 22.1224 14.6768C21.7776 14.3507 21.3188 14.0916 20.8141 13.8897C19.9309 13.5364 18.7931 13.3133 17.5546 13.2617C18.4656 13.7562 19.1685 14.3712 19.5822 15.0611C19.828 15.1268 20.0541 15.2012 20.257 15.2824C20.6571 15.4424 20.9306 15.6142 21.0918 15.7667C21.2502 15.9165 21.25 15.9956 21.25 16.0002V16.0002V16.0003C21.25 16.0048 21.2502 16.084 21.0918 16.2338C20.9306 16.3862 20.6571 16.558 20.257 16.7181C20.169 16.7533 20.0766 16.7872 19.9802 16.8197Z" fill="black"/>
<path fill-rule="evenodd" clip-rule="evenodd" d="M16.5145 10.1522C16.2946 10.6126 16.0063 11.0341 15.6628 11.4036C16.0587 11.6243 16.5147 11.75 17.0001 11.75C18.5188 11.75 19.7501 10.5188 19.7501 9C19.7501 7.48122 18.5188 6.25 17.0001 6.25C16.8958 6.25 16.7929 6.2558 16.6916 6.26711C16.8637 6.73272 16.9684 7.23096 16.9939 7.75001C16.996 7.75 16.998 7.75 17.0001 7.75C17.6904 7.75 18.2501 8.30964 18.2501 9C18.2501 9.69036 17.6904 10.25 17.0001 10.25C16.8278 10.25 16.6637 10.2152 16.5145 10.1522Z" fill="black"/>
<path fill-rule="evenodd" clip-rule="evenodd" d="M7.30845 6.26711C7.20719 6.2558 7.10427 6.25 7 6.25C5.48122 6.25 4.25 7.48122 4.25 9C4.25 10.5188 5.48122 11.75 7 11.75C7.48537 11.75 7.94138 11.6243 8.33721 11.4036C7.99374 11.0341 7.70549 10.6126 7.4856 10.1522C7.33631 10.2152 7.17222 10.25 7 10.25C6.30964 10.25 5.75 9.69036 5.75 9C5.75 8.30964 6.30964 7.75 7 7.75C7.00205 7.75 7.00409 7.75 7.00614 7.75001C7.0317 7.23096 7.13641 6.73272 7.30845 6.26711Z" fill="black"/>
</svg>
