<svg width="24" height="24" viewBox="0 0 24 24" fill="none" xmlns="http://www.w3.org/2000/svg">
<path fill-rule="evenodd" clip-rule="evenodd" d="M9.70191 4.35913C10.9711 3.08992 13.0289 3.08993 14.2981 4.35913L18.2981 8.35913C18.9076 8.96862 19.25 9.79527 19.25 10.6572V17.0004C19.25 18.7953 17.7949 20.2504 16 20.2504H15.75V16.0004C15.75 13.9293 14.0711 12.2504 12 12.2504C9.92893 12.2504 8.25 13.9293 8.25 16.0004V20.2504H8C6.20507 20.2504 4.75 18.7953 4.75 17.0004V10.6572C4.75 9.79527 5.09241 8.96862 5.7019 8.35913L9.70191 4.35913ZM9.75 20.2504H14.25V16.0004C14.25 14.7577 13.2426 13.7504 12 13.7504C10.7574 13.7504 9.75 14.7577 9.75 16.0004V20.2504ZM8.25 21.7504H8C5.37665 21.7504 3.25 19.6237 3.25 17.0004V10.6572C3.25 9.39745 3.75044 8.18927 4.64124 7.29847L8.64124 3.29847C10.4962 1.44348 13.5038 1.44348 15.3588 3.29847L19.3588 7.29847C20.2496 8.18927 20.75 9.39745 20.75 10.6572V17.0004C20.75 19.6237 18.6234 21.7504 16 21.7504H15.75H15H9H8.25Z" fill="black"/>
</svg>
