<svg width="24" height="24" viewBox="0 0 24 24" fill="none" xmlns="http://www.w3.org/2000/svg">
<path fill-rule="evenodd" clip-rule="evenodd" d="M15.3372 2.76303C15.4681 2.37008 15.8929 2.15771 16.2858 2.28869L16.4398 2.34001C18.4554 3.01187 20.037 4.5935 20.7089 6.60908L20.7602 6.76303C20.8912 7.15599 20.6788 7.58073 20.2858 7.71172C19.8929 7.8427 19.4681 7.63033 19.3372 7.23737L19.2858 7.08342C18.7633 5.51575 17.5331 4.28559 15.9654 3.76303L15.8115 3.71172C15.4185 3.58073 15.2062 3.15599 15.3372 2.76303Z" fill="black"/>
<path fill-rule="evenodd" clip-rule="evenodd" d="M8.76014 2.76303C8.62915 2.37008 8.20441 2.15771 7.81145 2.28869L7.6575 2.34001C5.64192 3.01187 4.06029 4.5935 3.38843 6.60908L3.33711 6.76303C3.20613 7.15599 3.4185 7.58073 3.81145 7.71172C4.20441 7.8427 4.62915 7.63033 4.76014 7.23737L4.81145 7.08342C5.33401 5.51575 6.56417 4.28559 8.13185 3.76303L8.2858 3.71172C8.67875 3.58073 8.89112 3.15599 8.76014 2.76303Z" fill="black"/>
<path fill-rule="evenodd" clip-rule="evenodd" d="M9.29841 4.54969C9.50742 3.24601 10.6374 2.25 12 2.25C13.3626 2.25 14.4925 3.24601 14.7016 4.54969C16.5694 5.35443 17.9747 6.99155 18.2048 9.01871L18.5961 12.4663C18.6489 12.9315 18.846 13.3854 19.1793 13.777C19.876 14.5954 19.898 15.6243 19.4438 16.4246C18.997 17.2119 18.1141 17.75 17.055 17.75H6.94494C5.88588 17.75 5.00295 17.2119 4.55618 16.4246C4.10201 15.6243 4.12398 14.5954 4.82069 13.777C5.15398 13.3854 5.35108 12.9315 5.40388 12.4663L5.79517 9.01871C6.02525 6.99155 7.43054 5.35443 9.29841 4.54969ZM12 3.75C11.3172 3.75 10.7638 4.30347 10.7638 4.9862V5.07695C10.7638 5.39753 10.56 5.68267 10.2567 5.78652C8.6074 6.35122 7.45848 7.66468 7.2856 9.18787L6.89431 12.6354C6.80617 13.412 6.47951 14.1424 5.9629 14.7493C5.69971 15.0584 5.69833 15.398 5.86076 15.6843C6.03058 15.9835 6.40418 16.25 6.94494 16.25H17.055C17.5958 16.25 17.9694 15.9835 18.1392 15.6843C18.3016 15.398 18.3003 15.0584 18.0371 14.7493C17.5205 14.1424 17.1938 13.412 17.1056 12.6354L16.7144 9.18787C16.5415 7.66468 15.3926 6.35122 13.7432 5.78652C13.4399 5.68267 13.2362 5.39753 13.2362 5.07695V4.9862C13.2362 4.30347 12.6827 3.75 12 3.75Z" fill="black"/>
<path fill-rule="evenodd" clip-rule="evenodd" d="M10.8473 19C10.8473 19.6904 11.4069 20.25 12.0973 20.25C12.7876 20.25 13.3473 19.6904 13.3473 19H14.8473C14.8473 20.5188 13.6161 21.75 12.0973 21.75C10.5785 21.75 9.34729 20.5188 9.34729 19H10.8473Z" fill="black"/>
</svg>
