<svg width="30" height="30" viewBox="0 0 30 30" fill="none" xmlns="http://www.w3.org/2000/svg">
<path fill-rule="evenodd" clip-rule="evenodd" d="M13.75 22.8125C8.74492 22.8125 4.6875 18.7551 4.6875 13.75C4.6875 8.74492 8.74492 4.6875 13.75 4.6875C18.7551 4.6875 22.8125 8.74492 22.8125 13.75C22.8125 18.7551 18.7551 22.8125 13.75 22.8125ZM2.8125 13.75C2.8125 19.7906 7.70938 24.6875 13.75 24.6875C19.7906 24.6875 24.6875 19.7906 24.6875 13.75C24.6875 7.70938 19.7906 2.8125 13.75 2.8125C7.70938 2.8125 2.8125 7.70938 2.8125 13.75Z" fill="black"/>
<path fill-rule="evenodd" clip-rule="evenodd" d="M20.5871 20.5871C20.9532 20.221 21.5468 20.221 21.9129 20.5871L26.9129 25.5871C27.279 25.9532 27.279 26.5468 26.9129 26.9129C26.5468 27.279 25.9532 27.279 25.5871 26.9129L20.5871 21.9129C20.221 21.5468 20.221 20.9532 20.5871 20.5871Z" fill="black"/>
</svg>
