<svg width="24" height="24" viewBox="0 0 24 24" fill="none" xmlns="http://www.w3.org/2000/svg">
<path fill-rule="evenodd" clip-rule="evenodd" d="M6 3.75C5.30964 3.75 4.75 4.30964 4.75 5V20.5858C4.75 20.8085 5.01929 20.9201 5.17678 20.7626L10.7626 15.1768C11.446 14.4934 12.554 14.4934 13.2374 15.1768L18.8232 20.7626C18.9807 20.9201 19.25 20.8085 19.25 20.5858V5C19.25 4.30964 18.6904 3.75 18 3.75H6ZM3.25 5C3.25 3.48122 4.48122 2.25 6 2.25H18C19.5188 2.25 20.75 3.48122 20.75 5V20.5858C20.75 22.1449 18.865 22.9257 17.7626 21.8232L12.1768 16.2374C12.0791 16.1398 11.9209 16.1398 11.8232 16.2374L6.23744 21.8232C5.135 22.9257 3.25 22.1449 3.25 20.5858V5Z" fill="black"/>
</svg>
