<svg width="24" height="24" viewBox="0 0 24 24" fill="none" xmlns="http://www.w3.org/2000/svg">
<path fill-rule="evenodd" clip-rule="evenodd" d="M6.99785 16.0612C6.78764 16.2683 6.75 16.4161 6.75 16.5C6.75 16.5839 6.78764 16.7317 6.99785 16.9388C7.2107 17.1485 7.55717 17.3719 8.04582 17.5755C9.01984 17.9813 10.4174 18.25 12 18.25C13.5826 18.25 14.9802 17.9813 15.9542 17.5755C16.4428 17.3719 16.7893 17.1485 17.0022 16.9388C17.2124 16.7317 17.25 16.5839 17.25 16.5C17.25 16.4161 17.2124 16.2683 17.0022 16.0612C16.7893 15.8515 16.4428 15.6281 15.9542 15.4245C14.9802 15.0187 13.5826 14.75 12 14.75C10.4174 14.75 9.01984 15.0187 8.04582 15.4245C7.55717 15.6281 7.2107 15.8515 6.99785 16.0612ZM7.4689 14.0399C8.66645 13.5409 10.2689 13.25 12 13.25C13.7311 13.25 15.3335 13.5409 16.5311 14.0399C17.1282 14.2887 17.6604 14.6041 18.0548 14.9926C18.4519 15.3837 18.75 15.8936 18.75 16.5C18.75 17.1064 18.4519 17.6163 18.0548 18.0074C17.6604 18.3959 17.1282 18.7113 16.5311 18.9601C15.3335 19.4591 13.7311 19.75 12 19.75C10.2689 19.75 8.66645 19.4591 7.4689 18.9601C6.87176 18.7113 6.33955 18.3959 5.94517 18.0074C5.54815 17.6163 5.25 17.1064 5.25 16.5C5.25 15.8936 5.54815 15.3837 5.94517 14.9926C6.33955 14.6041 6.87176 14.2887 7.4689 14.0399Z" fill="black"/>
<path fill-rule="evenodd" clip-rule="evenodd" d="M12 5.75C10.7574 5.75 9.75 6.75736 9.75 8C9.75 9.24264 10.7574 10.25 12 10.25C13.2426 10.25 14.25 9.24264 14.25 8C14.25 6.75736 13.2426 5.75 12 5.75ZM8.25 8C8.25 5.92893 9.92893 4.25 12 4.25C14.0711 4.25 15.75 5.92893 15.75 8C15.75 10.0711 14.0711 11.75 12 11.75C9.92893 11.75 8.25 10.0711 8.25 8Z" fill="black"/>
<path fill-rule="evenodd" clip-rule="evenodd" d="M6.44547 13.2617C5.20689 13.3133 4.06913 13.5364 3.18592 13.8897C2.68122 14.0915 2.22245 14.3507 1.87759 14.6768C1.53115 15.0045 1.25 15.4514 1.25 16.0002C1.25 16.5491 1.53115 16.996 1.87759 17.3236C2.22245 17.6498 2.68122 17.9089 3.18592 18.1108C3.68571 18.3107 4.26701 18.469 4.90197 18.578C4.40834 18.0455 4.09852 17.4506 4.01985 16.8197C3.92341 16.7872 3.83104 16.7533 3.74301 16.7181C3.34289 16.558 3.06943 16.3862 2.90826 16.2338C2.7498 16.084 2.74999 16.0048 2.75 16.0003L2.75 16.0002L2.75 16.0002C2.74999 15.9956 2.7498 15.9165 2.90826 15.7667C3.06943 15.6142 3.34289 15.4424 3.74301 15.2824C3.94597 15.2012 4.17201 15.1268 4.41787 15.0611C4.83157 14.3712 5.53447 13.7562 6.44547 13.2617Z" fill="black"/>
<path fill-rule="evenodd" clip-rule="evenodd" d="M19.9803 16.8197C19.9016 17.4506 19.5918 18.0455 19.0982 18.578C19.7331 18.469 20.3144 18.3107 20.8142 18.1108C21.3189 17.9089 21.7777 17.6498 22.1226 17.3236C22.469 16.996 22.7502 16.5491 22.7502 16.0002C22.7502 15.4514 22.469 15.0045 22.1226 14.6768C21.7777 14.3507 21.3189 14.0916 20.8142 13.8897C19.931 13.5364 18.7933 13.3133 17.5547 13.2617C18.4657 13.7562 19.1686 14.3712 19.5823 15.0611C19.8281 15.1268 20.0542 15.2012 20.2571 15.2824C20.6573 15.4424 20.9307 15.6142 21.0919 15.7667C21.2504 15.9165 21.2502 15.9956 21.2502 16.0002V16.0002V16.0003C21.2502 16.0048 21.2504 16.084 21.0919 16.2338C20.9307 16.3862 20.6573 16.558 20.2571 16.7181C20.1691 16.7533 20.0767 16.7872 19.9803 16.8197Z" fill="black"/>
<path fill-rule="evenodd" clip-rule="evenodd" d="M16.5142 10.1522C16.2943 10.6126 16.0061 11.0341 15.6626 11.4036C16.0584 11.6243 16.5144 11.75 16.9998 11.75C18.5186 11.75 19.7498 10.5188 19.7498 9C19.7498 7.48122 18.5186 6.25 16.9998 6.25C16.8955 6.25 16.7926 6.2558 16.6914 6.26711C16.8634 6.73272 16.9681 7.23096 16.9937 7.75001C16.9957 7.75 16.9978 7.75 16.9998 7.75C17.6902 7.75 18.2498 8.30964 18.2498 9C18.2498 9.69036 17.6902 10.25 16.9998 10.25C16.8276 10.25 16.6635 10.2152 16.5142 10.1522Z" fill="black"/>
<path fill-rule="evenodd" clip-rule="evenodd" d="M7.30845 6.26711C7.20719 6.2558 7.10427 6.25 7 6.25C5.48122 6.25 4.25 7.48122 4.25 9C4.25 10.5188 5.48122 11.75 7 11.75C7.48537 11.75 7.94138 11.6243 8.33721 11.4036C7.99374 11.0341 7.70549 10.6126 7.4856 10.1522C7.33631 10.2152 7.17222 10.25 7 10.25C6.30964 10.25 5.75 9.69036 5.75 9C5.75 8.30964 6.30964 7.75 7 7.75C7.00205 7.75 7.00409 7.75 7.00614 7.75001C7.0317 7.23096 7.13641 6.73272 7.30845 6.26711Z" fill="black"/>
</svg>
