<svg width="50" height="50" viewBox="0 0 50 50" fill="none" xmlns="http://www.w3.org/2000/svg">
<path fill-rule="evenodd" clip-rule="evenodd" d="M12.5 16.6668C12.5 15.5162 13.4327 14.5835 14.5833 14.5835L35.4167 14.5835C36.5673 14.5835 37.5 15.5162 37.5 16.6668C37.5 17.8174 36.5673 18.7502 35.4167 18.7502L14.5833 18.7502C13.4327 18.7502 12.5 17.8174 12.5 16.6668Z" fill="#202020"/>
<path fill-rule="evenodd" clip-rule="evenodd" d="M12.5 24.9998C12.5 23.8492 13.4327 22.9165 14.5833 22.9165L35.4167 22.9165C36.5673 22.9165 37.5 23.8492 37.5 24.9998C37.5 26.1504 36.5673 27.0832 35.4167 27.0832L14.5833 27.0832C13.4327 27.0832 12.5 26.1504 12.5 24.9998Z" fill="#202020"/>
<path fill-rule="evenodd" clip-rule="evenodd" d="M12.5 33.3333C12.5 32.1827 13.4327 31.25 14.5833 31.25L35.4167 31.25C36.5673 31.25 37.5 32.1827 37.5 33.3333C37.5 34.4839 36.5673 35.4167 35.4167 35.4167L14.5833 35.4167C13.4327 35.4167 12.5 34.4839 12.5 33.3333Z" fill="#202020"/>
</svg>
