<svg width="24" height="24" viewBox="0 0 24 24" fill="none" xmlns="http://www.w3.org/2000/svg">
<path fill-rule="evenodd" clip-rule="evenodd" d="M22.75 15C22.75 17.6234 20.6234 19.75 18 19.75L6 19.75C3.37665 19.75 1.25 17.6234 1.25 15L1.25 9C1.25 6.37665 3.37665 4.25 6 4.25L7.17157 4.25C7.50309 4.25 7.82104 4.1183 8.05546 3.88388L8.88388 3.05546C9.39961 2.53973 10.0991 2.25 10.8284 2.25L13.1716 2.25C13.9009 2.25 14.6004 2.53973 15.1161 3.05546L15.9445 3.88388C16.179 4.11831 16.4969 4.25 16.8284 4.25L18 4.25C20.6234 4.25 22.75 6.37665 22.75 9L22.75 15ZM18 18.25C19.7949 18.25 21.25 16.7949 21.25 15L21.25 9C21.25 7.20508 19.7949 5.75 18 5.75L16.8284 5.75C16.0991 5.75 15.3996 5.46027 14.8839 4.94454L14.0555 4.11612C13.821 3.8817 13.5031 3.75 13.1716 3.75L10.8284 3.75C10.4969 3.75 10.179 3.8817 9.94455 4.11612L9.11612 4.94454C8.60039 5.46027 7.90092 5.75 7.17157 5.75L6 5.75C4.20507 5.75 2.75 7.20507 2.75 9L2.75 15C2.75 16.7949 4.20507 18.25 6 18.25L18 18.25Z" fill="black"/>
<path fill-rule="evenodd" clip-rule="evenodd" d="M12 8.75C10.2051 8.75 8.75 10.2051 8.75 12C8.75 13.7949 10.2051 15.25 12 15.25C13.7949 15.25 15.25 13.7949 15.25 12C15.25 10.2051 13.7949 8.75 12 8.75ZM7.25 12C7.25 9.37665 9.37665 7.25 12 7.25C14.6234 7.25 16.75 9.37665 16.75 12C16.75 14.6234 14.6234 16.75 12 16.75C9.37665 16.75 7.25 14.6234 7.25 12Z" fill="black"/>
<path d="M13 12C13 11.4477 12.5523 11 12 11C11.4477 11 11 11.4477 11 12C11 12.5523 11.4477 13 12 13C12.5523 13 13 12.5523 13 12Z" fill="black"/>
</svg>
