<svg width="18" height="16" viewBox="0 0 18 16" fill="none" xmlns="http://www.w3.org/2000/svg">
<path fill-rule="evenodd" clip-rule="evenodd" d="M0.041626 7.99967C0.041626 3.9726 3.30622 0.708008 7.33329 0.708008H10.6666C14.6937 0.708008 17.9583 3.9726 17.9583 7.99967C17.9583 12.0268 14.6937 15.2913 10.6666 15.2913H2.33329C1.06764 15.2913 0.041626 14.2653 0.041626 12.9997V7.99967ZM7.33329 1.95801C3.99657 1.95801 1.29163 4.66295 1.29163 7.99967V12.9997C1.29163 13.575 1.758 14.0413 2.33329 14.0413H10.6666C14.0033 14.0413 16.7083 11.3364 16.7083 7.99967C16.7083 4.66295 14.0033 1.95801 10.6666 1.95801H7.33329Z" fill="black"/>
</svg>
