<svg width="14" height="18" viewBox="0 0 14 18" fill="none" xmlns="http://www.w3.org/2000/svg">
<path d="M0.333415 4.6665L0.333414 13.3332C0.333414 15.5423 2.12428 17.3332 4.33341 17.3332L6.17656 17.3332C7.23743 17.3332 8.25484 16.9117 9.00499 16.1616L12.4952 12.6714C13.2453 11.9213 13.6667 10.9039 13.6667 9.84299L13.6667 4.6665C13.6667 2.45736 11.8759 0.666504 9.66675 0.666504L4.33342 0.666503C2.12428 0.666503 0.333415 2.45736 0.333415 4.6665Z" stroke="#146356" stroke-width="1.5" stroke-linejoin="round"/>
<path d="M7.83342 17.3333L7.83342 15.5C7.83342 13.2909 9.62428 11.5 11.8334 11.5L13.6667 11.5" stroke="#146356" stroke-width="1.5" stroke-linejoin="round"/>
<path d="M7 4.83301V8.16634" stroke="#146356" stroke-width="1.5" stroke-linecap="round" stroke-linejoin="round"/>
<path d="M8.66675 6.5L5.33341 6.5" stroke="#146356" stroke-width="1.5" stroke-linecap="round" stroke-linejoin="round"/>
</svg>
