<svg width="14" height="18" viewBox="0 0 14 18" fill="none" xmlns="http://www.w3.org/2000/svg">
<path d="M0.333659 4.66663L0.333659 13.3333C0.333659 15.5424 2.12452 17.3333 4.33366 17.3333L6.1768 17.3333C7.23767 17.3333 8.25509 16.9119 9.00523 16.1617L12.4954 12.6715C13.2456 11.9214 13.667 10.904 13.667 9.84311L13.667 4.66663C13.667 2.45749 11.8761 0.666626 9.667 0.666626L4.33366 0.666626C2.12452 0.666625 0.333659 2.45749 0.333659 4.66663Z" stroke="black" stroke-width="1.5" stroke-linejoin="round"/>
<path d="M7.83366 17.3333L7.83366 15.5C7.83366 13.2909 9.62452 11.5 11.8337 11.5L13.667 11.5" stroke="black" stroke-width="1.5" stroke-linejoin="round"/>
<path d="M7 4.83325V8.16659" stroke="black" stroke-width="1.5" stroke-linecap="round" stroke-linejoin="round"/>
<path d="M8.66699 6.5L5.33366 6.5" stroke="black" stroke-width="1.5" stroke-linecap="round" stroke-linejoin="round"/>
</svg>
