<svg width="20" height="20" viewBox="0 0 20 20" fill="none" xmlns="http://www.w3.org/2000/svg">
<path fill-rule="evenodd" clip-rule="evenodd" d="M6.47748 3.95837C4.62595 3.95837 3.125 5.45933 3.125 7.31085V7.49763C3.125 8.3013 3.39852 9.08103 3.90056 9.70859L7.88515 14.6893C8.96936 16.0446 11.0306 16.0446 12.1149 14.6893L16.0994 9.70859C16.6015 9.08103 16.875 8.3013 16.875 7.49763V7.31085C16.875 5.45933 15.374 3.95837 13.5225 3.95837C12.6334 3.95837 11.7807 4.31158 11.152 4.94029L10.4419 5.65032C10.1979 5.89439 9.80214 5.89439 9.55806 5.65032L8.84803 4.94029C8.21932 4.31158 7.36661 3.95837 6.47748 3.95837ZM1.875 7.31085C1.875 4.76897 3.9356 2.70837 6.47748 2.70837C7.69813 2.70837 8.86879 3.19328 9.73192 4.05641L10 4.32449L10.2681 4.05641C11.1312 3.19328 12.3019 2.70837 13.5225 2.70837C16.0644 2.70837 18.125 4.76897 18.125 7.31085V7.49763C18.125 8.58514 17.7549 9.64026 17.0755 10.4895L13.0909 15.4702C11.5063 17.451 8.49368 17.451 6.90906 15.4702L2.92447 10.4895C2.24512 9.64026 1.875 8.58513 1.875 7.49763V7.31085Z" fill="black"/>
</svg>
