<svg width="24" height="24" viewBox="0 0 24 24" fill="none" xmlns="http://www.w3.org/2000/svg">
<path fill-rule="evenodd" clip-rule="evenodd" d="M9.70191 4.35876C10.9711 3.08956 13.0289 3.08956 14.2981 4.35876L18.2981 8.35877C18.9076 8.96826 19.25 9.79491 19.25 10.6569V17C19.25 18.7949 17.7949 20.25 16 20.25H15.75V16C15.75 13.9289 14.0711 12.25 12 12.25C9.92893 12.25 8.25 13.9289 8.25 16V20.25H8C6.20507 20.25 4.75 18.7949 4.75 17V10.6569C4.75 9.79491 5.09241 8.96826 5.7019 8.35876L9.70191 4.35876ZM9.75 20.25H14.25V16C14.25 14.7574 13.2426 13.75 12 13.75C10.7574 13.75 9.75 14.7574 9.75 16V20.25ZM8.25 21.75H8C5.37665 21.75 3.25 19.6234 3.25 17V10.6569C3.25 9.39708 3.75044 8.1889 4.64124 7.2981L8.64124 3.2981C10.4962 1.44311 13.5038 1.44311 15.3588 3.2981L19.3588 7.29811C20.2496 8.1889 20.75 9.39708 20.75 10.6569V17C20.75 19.6234 18.6234 21.75 16 21.75H15.75H15H9H8.25Z" fill="black"/>
</svg>
