<svg width="25" height="25" viewBox="0 0 25 25" fill="none" xmlns="http://www.w3.org/2000/svg">
<path fill-rule="evenodd" clip-rule="evenodd" d="M9.83881 9.11426C8.86351 9.11426 8.07288 9.90489 8.07288 10.8802C8.07288 11.3127 8.2316 11.7302 8.51893 12.0534L11.5268 15.4372C12.0447 16.0199 12.9552 16.0199 13.4731 15.4372L16.481 12.0534C16.7683 11.7302 16.927 11.3127 16.927 10.8802C16.927 9.90489 16.1364 9.11426 15.1611 9.11426H14.8853C14.3809 9.11426 13.8944 9.30096 13.5195 9.63838L13.0226 10.0856C12.7255 10.353 12.2744 10.353 11.9773 10.0856L11.4804 9.63838C11.1055 9.30096 10.619 9.11426 10.1146 9.11426H9.83881ZM6.51038 10.8802C6.51038 9.04195 8.00057 7.55176 9.83881 7.55176H10.1146C10.9935 7.55176 11.8417 7.87288 12.5 8.45404C13.1582 7.87288 14.0064 7.55176 14.8853 7.55176H15.1611C16.9994 7.55176 18.4895 9.04195 18.4895 10.8802C18.4895 11.6954 18.1904 12.4822 17.6488 13.0915L14.641 16.4753C13.5015 17.7572 11.4984 17.7572 10.3589 16.4753L7.35111 13.0915C6.80953 12.4822 6.51038 11.6954 6.51038 10.8802Z" fill="black"/>
<path fill-rule="evenodd" clip-rule="evenodd" d="M2.34375 12.5C2.34375 6.89086 6.89086 2.34375 12.5 2.34375C18.1091 2.34375 22.6562 6.89086 22.6562 12.5C22.6562 18.1091 18.1091 22.6562 12.5 22.6562C6.89086 22.6562 2.34375 18.1091 2.34375 12.5ZM12.5 3.90625C7.7538 3.90625 3.90625 7.7538 3.90625 12.5C3.90625 17.2462 7.7538 21.0938 12.5 21.0938C17.2462 21.0938 21.0938 17.2462 21.0938 12.5C21.0938 7.7538 17.2462 3.90625 12.5 3.90625Z" fill="black"/>
</svg>
