<svg width="45" height="45" viewBox="0 0 45 45" fill="none" xmlns="http://www.w3.org/2000/svg">
<path fill-rule="evenodd" clip-rule="evenodd" d="M11.25 15C11.25 13.9645 12.0895 13.125 13.125 13.125L31.875 13.125C32.9105 13.125 33.75 13.9645 33.75 15C33.75 16.0355 32.9105 16.875 31.875 16.875L13.125 16.875C12.0895 16.875 11.25 16.0355 11.25 15Z" fill="black"/>
<path fill-rule="evenodd" clip-rule="evenodd" d="M11.25 22.5C11.25 21.4645 12.0895 20.625 13.125 20.625L31.875 20.625C32.9105 20.625 33.75 21.4645 33.75 22.5C33.75 23.5355 32.9105 24.375 31.875 24.375L13.125 24.375C12.0895 24.375 11.25 23.5355 11.25 22.5Z" fill="black"/>
<path fill-rule="evenodd" clip-rule="evenodd" d="M11.25 30C11.25 28.9645 12.0895 28.125 13.125 28.125L31.875 28.125C32.9105 28.125 33.75 28.9645 33.75 30C33.75 31.0355 32.9105 31.875 31.875 31.875L13.125 31.875C12.0895 31.875 11.25 31.0355 11.25 30Z" fill="black"/>
</svg>
