<svg width="21" height="20" viewBox="0 0 21 20" fill="none" xmlns="http://www.w3.org/2000/svg">
<path fill-rule="evenodd" clip-rule="evenodd" d="M10.0578 8.95801C9.48254 8.95801 9.01617 9.42438 9.01617 9.99967C9.01617 10.575 9.48254 11.0413 10.0578 11.0413C10.6331 11.0413 11.0995 10.575 11.0995 9.99967C11.0995 9.42438 10.6331 8.95801 10.0578 8.95801ZM7.76617 9.99967C7.76617 8.73402 8.79219 7.70801 10.0578 7.70801C11.3235 7.70801 12.3495 8.73402 12.3495 9.99967C12.3495 11.2653 11.3235 12.2913 10.0578 12.2913C8.79219 12.2913 7.76617 11.2653 7.76617 9.99967Z" fill="black"/>
<path fill-rule="evenodd" clip-rule="evenodd" d="M10.0578 2.29199C9.48254 2.29199 9.01617 2.75836 9.01617 3.33366C9.01617 3.90896 9.48254 4.37533 10.0578 4.37533C10.6331 4.37533 11.0995 3.90896 11.0995 3.33366C11.0995 2.75836 10.6331 2.29199 10.0578 2.29199ZM7.76617 3.33366C7.76617 2.06801 8.79219 1.04199 10.0578 1.04199C11.3235 1.04199 12.3495 2.06801 12.3495 3.33366C12.3495 4.59931 11.3235 5.62533 10.0578 5.62533C8.79219 5.62533 7.76617 4.59931 7.76617 3.33366Z" fill="black"/>
<path fill-rule="evenodd" clip-rule="evenodd" d="M10.0578 15.625C9.48254 15.625 9.01617 16.0914 9.01617 16.6667C9.01617 17.242 9.48254 17.7083 10.0578 17.7083C10.6331 17.7083 11.0995 17.242 11.0995 16.6667C11.0995 16.0914 10.6331 15.625 10.0578 15.625ZM7.76617 16.6667C7.76617 15.401 8.79219 14.375 10.0578 14.375C11.3235 14.375 12.3495 15.401 12.3495 16.6667C12.3495 17.9323 11.3235 18.9583 10.0578 18.9583C8.79219 18.9583 7.76617 17.9323 7.76617 16.6667Z" fill="black"/>
</svg>
