<svg width="16" height="16" viewBox="0 0 16 16" fill="none" xmlns="http://www.w3.org/2000/svg">
<path fill-rule="evenodd" clip-rule="evenodd" d="M8.83325 7.99996C8.83325 7.53972 8.46016 7.16663 7.99992 7.16663C7.53968 7.16663 7.16659 7.53972 7.16659 7.99996C7.16659 8.4602 7.53968 8.83329 7.99992 8.83329C8.46016 8.83329 8.83325 8.4602 8.83325 7.99996ZM7.99992 6.16663C9.01244 6.16663 9.83325 6.98744 9.83325 7.99996C9.83325 9.01248 9.01244 9.83329 7.99992 9.83329C6.9874 9.83329 6.16659 9.01248 6.16659 7.99996C6.16659 6.98744 6.9874 6.16663 7.99992 6.16663Z" fill="black"/>
<path fill-rule="evenodd" clip-rule="evenodd" d="M14.1667 7.99996C14.1667 7.53972 13.7937 7.16663 13.3334 7.16663C12.8732 7.16663 12.5001 7.53972 12.5001 7.99996C12.5001 8.4602 12.8732 8.83329 13.3334 8.83329C13.7937 8.83329 14.1667 8.4602 14.1667 7.99996ZM13.3334 6.16663C14.3459 6.16663 15.1667 6.98744 15.1667 7.99996C15.1667 9.01248 14.3459 9.83329 13.3334 9.83329C12.3209 9.83329 11.5001 9.01248 11.5001 7.99996C11.5001 6.98744 12.3209 6.16663 13.3334 6.16663Z" fill="black"/>
<path fill-rule="evenodd" clip-rule="evenodd" d="M3.5 7.99996C3.5 7.53972 3.1269 7.16663 2.66667 7.16663C2.20643 7.16663 1.83333 7.53972 1.83333 7.99996C1.83333 8.4602 2.20643 8.83329 2.66667 8.83329C3.1269 8.83329 3.5 8.4602 3.5 7.99996ZM2.66667 6.16663C3.67919 6.16663 4.5 6.98744 4.5 7.99996C4.5 9.01248 3.67919 9.83329 2.66667 9.83329C1.65414 9.83329 0.833333 9.01248 0.833333 7.99996C0.833333 6.98744 1.65414 6.16663 2.66667 6.16663Z" fill="black"/>
</svg>
