<svg width="24" height="24" viewBox="0 0 24 24" fill="none" xmlns="http://www.w3.org/2000/svg">
<path fill-rule="evenodd" clip-rule="evenodd" d="M15.337 2.76285C15.468 2.36989 15.8928 2.15752 16.2857 2.28851L16.4397 2.33982C18.4552 3.01169 20.0369 4.59332 20.7087 6.6089L20.7601 6.76285C20.891 7.15581 20.6787 7.58055 20.2857 7.71153C19.8928 7.84252 19.468 7.63015 19.337 7.23719L19.2857 7.08324C18.7632 5.51557 17.533 4.28541 15.9653 3.76285L15.8114 3.71153C15.4184 3.58055 15.206 3.15581 15.337 2.76285Z" fill="black"/>
<path fill-rule="evenodd" clip-rule="evenodd" d="M8.76014 2.76285C8.62915 2.36989 8.20441 2.15752 7.81145 2.28851L7.6575 2.33982C5.64192 3.01169 4.06029 4.59332 3.38843 6.6089L3.33711 6.76285C3.20613 7.15581 3.4185 7.58055 3.81145 7.71153C4.20441 7.84252 4.62915 7.63015 4.76014 7.23719L4.81145 7.08324C5.33401 5.51557 6.56417 4.28541 8.13185 3.76285L8.2858 3.71153C8.67875 3.58055 8.89112 3.15581 8.76014 2.76285Z" fill="black"/>
<path fill-rule="evenodd" clip-rule="evenodd" d="M9.29853 4.54972C9.50754 3.24604 10.6375 2.25003 12.0001 2.25003C13.3627 2.25003 14.4927 3.24604 14.7017 4.54972C16.5696 5.35446 17.9748 6.99158 18.2049 9.01874L18.5962 12.4663C18.649 12.9315 18.8461 13.3855 19.1794 13.777C19.8761 14.5955 19.8981 15.6243 19.4439 16.4246C18.9971 17.2119 18.1142 17.75 17.0551 17.75H6.94507C5.886 17.75 5.00307 17.2119 4.5563 16.4246C4.10214 15.6243 4.1241 14.5955 4.82081 13.777C5.1541 13.3855 5.3512 12.9315 5.40401 12.4663L5.79529 9.01874C6.02537 6.99158 7.43066 5.35446 9.29853 4.54972ZM12.0001 3.75003C11.3174 3.75003 10.7639 4.3035 10.7639 4.98623V5.07698C10.7639 5.39756 10.5601 5.6827 10.2568 5.78655C8.60752 6.35126 7.4586 7.66471 7.28573 9.1879L6.89444 12.6355C6.80629 13.4121 6.47963 14.1424 5.96302 14.7493C5.69983 15.0585 5.69846 15.3981 5.86088 15.6843C6.0307 15.9836 6.4043 16.25 6.94507 16.25H17.0551C17.5959 16.25 17.9695 15.9836 18.1393 15.6843C18.3018 15.3981 18.3004 15.0585 18.0372 14.7493C17.5206 14.1424 17.1939 13.4121 17.1058 12.6355L16.7145 9.1879C16.5416 7.66471 15.3927 6.35126 13.7434 5.78655C13.4401 5.6827 13.2363 5.39757 13.2363 5.07698V4.98623C13.2363 4.3035 12.6828 3.75003 12.0001 3.75003Z" fill="black"/>
<path fill-rule="evenodd" clip-rule="evenodd" d="M10.8472 19C10.8472 19.6904 11.4068 20.25 12.0972 20.25C12.7875 20.25 13.3472 19.6904 13.3472 19H14.8472C14.8472 20.5188 13.616 21.75 12.0972 21.75C10.5784 21.75 9.34717 20.5188 9.34717 19H10.8472Z" fill="black"/>
</svg>
