<svg width="24" height="24" viewBox="0 0 24 24" fill="none" xmlns="http://www.w3.org/2000/svg">
<path fill-rule="evenodd" clip-rule="evenodd" d="M6 9.25C6.41421 9.25 6.75 9.58579 6.75 10V17C6.75 18.7949 8.20507 20.25 10 20.25H14C15.7949 20.25 17.25 18.7949 17.25 17V10C17.25 9.58579 17.5858 9.25 18 9.25C18.4142 9.25 18.75 9.58579 18.75 10V17C18.75 19.6234 16.6234 21.75 14 21.75H10C7.37665 21.75 5.25 19.6234 5.25 17V10C5.25 9.58579 5.58579 9.25 6 9.25Z" fill="#DB4545"/>
<path fill-rule="evenodd" clip-rule="evenodd" d="M12 6.75C9.17893 6.75 6.55787 7.45301 4.36057 8.65765C3.99736 8.85678 3.54149 8.72376 3.34237 8.36055C3.14324 7.99734 3.27626 7.54147 3.63947 7.34235C6.06068 6.01495 8.93017 5.25 12 5.25C15.0699 5.25 17.9394 6.01495 20.3606 7.34235C20.7238 7.54147 20.8568 7.99734 20.6577 8.36055C20.4585 8.72376 20.0027 8.85678 19.6395 8.65765C17.4422 7.45301 14.8211 6.75 12 6.75Z" fill="#DB4545"/>
<path fill-rule="evenodd" clip-rule="evenodd" d="M12 3.75C11.3096 3.75 10.75 4.30964 10.75 5V6C10.75 6.41421 10.4142 6.75 10 6.75C9.58579 6.75 9.25 6.41421 9.25 6V5C9.25 3.48122 10.4812 2.25 12 2.25C13.5188 2.25 14.75 3.48122 14.75 5V6C14.75 6.41421 14.4142 6.75 14 6.75C13.5858 6.75 13.25 6.41421 13.25 6V5C13.25 4.30964 12.6904 3.75 12 3.75Z" fill="#DB4545"/>
<path fill-rule="evenodd" clip-rule="evenodd" d="M10 11.25C10.4142 11.25 10.75 11.5858 10.75 12V16C10.75 16.4142 10.4142 16.75 10 16.75C9.58579 16.75 9.25 16.4142 9.25 16V12C9.25 11.5858 9.58579 11.25 10 11.25Z" fill="#DB4545"/>
<path fill-rule="evenodd" clip-rule="evenodd" d="M14 11.25C14.4142 11.25 14.75 11.5858 14.75 12V16C14.75 16.4142 14.4142 16.75 14 16.75C13.5858 16.75 13.25 16.4142 13.25 16V12C13.25 11.5858 13.5858 11.25 14 11.25Z" fill="#DB4545"/>
</svg>
