<svg width="40" height="40" viewBox="0 0 40 40" fill="none" xmlns="http://www.w3.org/2000/svg">
<path fill-rule="evenodd" clip-rule="evenodd" d="M20 13.75C20.6904 13.75 21.25 14.3096 21.25 15V25C21.25 25.6904 20.6904 26.25 20 26.25C19.3096 26.25 18.75 25.6904 18.75 25V15C18.75 14.3096 19.3096 13.75 20 13.75Z" fill="black"/>
<path fill-rule="evenodd" clip-rule="evenodd" d="M26.25 20C26.25 20.6904 25.6904 21.25 25 21.25H15C14.3096 21.25 13.75 20.6904 13.75 20C13.75 19.3096 14.3096 18.75 15 18.75H25C25.6904 18.75 26.25 19.3096 26.25 20Z" fill="black"/>
<path fill-rule="evenodd" clip-rule="evenodd" d="M3.75 20C3.75 11.0254 11.0254 3.75 20 3.75C28.9746 3.75 36.25 11.0254 36.25 20C36.25 28.9746 28.9746 36.25 20 36.25C11.0254 36.25 3.75 28.9746 3.75 20ZM20 6.25C12.4061 6.25 6.25 12.4061 6.25 20C6.25 27.5939 12.4061 33.75 20 33.75C27.5939 33.75 33.75 27.5939 33.75 20C33.75 12.4061 27.5939 6.25 20 6.25Z" fill="black"/>
</svg>
