<svg width="18" height="16" viewBox="0 0 18 16" fill="none" xmlns="http://www.w3.org/2000/svg">
<path fill-rule="evenodd" clip-rule="evenodd" d="M0.041748 8.00001C0.041748 3.97293 3.30634 0.708344 7.33342 0.708344H10.6667C14.6938 0.708344 17.9584 3.97293 17.9584 8.00001C17.9584 12.0271 14.6938 15.2917 10.6667 15.2917H2.33342C1.06776 15.2917 0.041748 14.2657 0.041748 13V8.00001ZM7.33342 1.95834C3.99669 1.95834 1.29175 4.66329 1.29175 8.00001V13C1.29175 13.5753 1.75812 14.0417 2.33342 14.0417H10.6667C14.0035 14.0417 16.7084 11.3367 16.7084 8.00001C16.7084 4.66329 14.0035 1.95834 10.6667 1.95834H7.33342Z" fill="black"/>
</svg>
