<svg width="20" height="20" viewBox="0 0 20 20" fill="none" xmlns="http://www.w3.org/2000/svg">
<path fill-rule="evenodd" clip-rule="evenodd" d="M14.0277 3.86157C14.9227 2.96662 16.3737 2.96662 17.2686 3.86157C18.1636 4.75652 18.1636 6.20753 17.2686 7.10248L11.985 12.3861C11.6586 12.7125 11.2413 12.9327 10.7876 13.0179L8.39186 13.468C8.18902 13.5061 7.98046 13.4416 7.83453 13.2957C7.68859 13.1497 7.62411 12.9412 7.66221 12.7383L8.11228 10.3426C8.19749 9.88893 8.41771 9.4716 8.74409 9.14522L14.0277 3.86157ZM16.3848 4.74546C15.978 4.33866 15.3184 4.33866 14.9116 4.74546L9.62798 10.0291C9.47962 10.1775 9.37952 10.3672 9.34079 10.5734L9.0595 12.0707L10.5569 11.7894C10.7631 11.7507 10.9528 11.6506 11.1011 11.5022L16.3848 6.21859C16.7916 5.8118 16.7916 5.15225 16.3848 4.74546Z" fill="black"/>
<path fill-rule="evenodd" clip-rule="evenodd" d="M7.27028 9.16666H5.62804C4.76002 9.16666 3.9665 9.65708 3.57831 10.4335L1.91164 13.7668C1.14978 15.2905 2.25779 17.0833 3.96137 17.0833H15.2346C16.9382 17.0833 18.0462 15.2905 17.2843 13.7668L15.6177 10.4335C15.5925 10.3832 15.5657 10.3341 15.5372 10.2863L14.6101 11.2134L16.1663 14.3258C16.5126 15.0184 16.0089 15.8333 15.2346 15.8333H3.96137C3.18702 15.8333 2.68337 15.0184 3.02968 14.3258L4.69634 10.9925C4.87279 10.6396 5.23348 10.4167 5.62804 10.4167H6.41802C6.47981 10.1037 6.63197 9.80497 6.8745 9.56243L7.27028 9.16666Z" fill="black"/>
</svg>
