<svg width="24" height="24" viewBox="0 0 24 24" fill="none" xmlns="http://www.w3.org/2000/svg">
<path fill-rule="evenodd" clip-rule="evenodd" d="M9.70191 4.35864C10.9711 3.08944 13.0289 3.08944 14.2981 4.35864L18.2981 8.35864C18.9076 8.96814 19.25 9.79478 19.25 10.6567V16.9999C19.25 18.7948 17.7949 20.2499 16 20.2499H15.75V15.9999C15.75 13.9288 14.0711 12.2499 12 12.2499C9.92893 12.2499 8.25 13.9288 8.25 15.9999V20.2499H8C6.20507 20.2499 4.75 18.7948 4.75 16.9999V10.6567C4.75 9.79479 5.09241 8.96813 5.7019 8.35864L9.70191 4.35864ZM9.75 20.2499H14.25V15.9999C14.25 14.7572 13.2426 13.7499 12 13.7499C10.7574 13.7499 9.75 14.7572 9.75 15.9999V20.2499ZM8.25 21.7499H8C5.37665 21.7499 3.25 19.6232 3.25 16.9999V10.6567C3.25 9.39696 3.75044 8.18878 4.64124 7.29798L8.64124 3.29798C10.4962 1.44299 13.5038 1.44299 15.3588 3.29798L19.3588 7.29798C20.2496 8.18878 20.75 9.39696 20.75 10.6567V16.9999C20.75 19.6232 18.6234 21.7499 16 21.7499H15.75H15H9H8.25Z" fill="black"/>
</svg>
