<svg width="25" height="25" viewBox="0 0 25 25" fill="none" xmlns="http://www.w3.org/2000/svg">
<path fill-rule="evenodd" clip-rule="evenodd" d="M9.83893 9.11458C8.86364 9.11458 8.073 9.90521 8.073 10.8805C8.073 11.313 8.23172 11.7305 8.51906 12.0537L11.5269 15.4376C12.0448 16.0203 12.9553 16.0203 13.4733 15.4376L16.4811 12.0537C16.7684 11.7305 16.9272 11.313 16.9272 10.8805C16.9272 9.90521 16.1365 9.11458 15.1612 9.11458H14.8854C14.3811 9.11458 13.8945 9.30128 13.5196 9.6387L13.0227 10.0859C12.7256 10.3533 12.2746 10.3533 11.9775 10.0859L11.4806 9.6387C11.1057 9.30128 10.6191 9.11458 10.1147 9.11458H9.83893ZM6.5105 10.8805C6.5105 9.04227 8.00069 7.55208 9.83893 7.55208H10.1147C10.9936 7.55208 11.8418 7.8732 12.5001 8.45436C13.1584 7.8732 14.0065 7.55208 14.8854 7.55208H15.1612C16.9995 7.55208 18.4897 9.04227 18.4897 10.8805C18.4897 11.6957 18.1905 12.4825 17.6489 13.0918L14.6411 16.4756C13.5016 17.7576 11.4986 17.7576 10.3591 16.4756L7.35123 13.0918C6.80965 12.4825 6.5105 11.6957 6.5105 10.8805Z" fill="black"/>
<path fill-rule="evenodd" clip-rule="evenodd" d="M2.34375 12.5C2.34375 6.89086 6.89086 2.34375 12.5 2.34375C18.1091 2.34375 22.6562 6.89086 22.6562 12.5C22.6562 18.1091 18.1091 22.6562 12.5 22.6562C6.89086 22.6562 2.34375 18.1091 2.34375 12.5ZM12.5 3.90625C7.7538 3.90625 3.90625 7.7538 3.90625 12.5C3.90625 17.2462 7.7538 21.0938 12.5 21.0938C17.2462 21.0938 21.0938 17.2462 21.0938 12.5C21.0938 7.7538 17.2462 3.90625 12.5 3.90625Z" fill="black"/>
</svg>
