<svg width="146" height="148" viewBox="0 0 146 148" fill="none" xmlns="http://www.w3.org/2000/svg">
<path fill-rule="evenodd" clip-rule="evenodd" d="M87.3435 35.8992C93.8505 31.1259 102.996 31.71 108.857 37.6516C114.718 43.5932 115.294 52.8635 110.586 59.4596C115.159 71.1135 114.161 84.3798 106.431 94.2225L93.2844 110.962C91.5103 113.221 90.4056 116.059 90.155 119.22C89.6312 125.827 85.3001 130.409 79.9038 131.918C74.5955 133.403 68.4827 131.9 63.9271 127.282L20.4379 83.1968C15.8823 78.5787 14.3992 72.3822 15.8639 67.0012C17.3528 61.531 21.873 57.1405 28.3906 56.6096C31.5085 56.3556 34.3089 55.2357 36.5373 53.4373L53.0504 40.1105C62.76 32.2743 75.8471 31.2634 87.3435 35.8992ZM102.404 44.1923C99.4676 41.2153 94.7061 41.2153 91.7692 44.1923L91.3789 44.588C89.9999 45.9859 87.8968 46.3408 86.1455 45.4711C76.6217 40.7416 66.0296 41.4591 58.7339 47.3471L42.2208 60.674C38.501 63.676 33.9544 65.4361 29.1215 65.8298C26.6594 66.0304 25.1926 67.5053 24.6601 69.4615C24.1034 71.507 24.5642 74.298 26.8903 76.656L70.3794 120.741C72.7056 123.099 75.4589 123.566 77.4767 123.002C79.4066 122.462 80.8615 120.975 81.0593 118.479C81.4477 113.58 83.184 108.971 86.1456 105.2L99.2923 88.4611C105.101 81.0654 105.809 70.3283 101.143 60.674C100.285 58.8987 100.635 56.7668 102.014 55.369L102.404 54.9732C105.341 51.9962 105.341 47.1694 102.404 44.1923Z" fill="#146356"/>
<path fill-rule="evenodd" clip-rule="evenodd" d="M40.2412 114.173C37.2716 117.183 37.2716 122.064 40.2412 125.074C43.2108 128.084 48.0255 128.084 50.9951 125.074L57.4474 131.615C50.9143 138.237 40.322 138.237 33.7888 131.615C27.2557 124.992 27.2557 114.254 33.7888 107.632L40.2412 114.173Z" fill="#146356"/>
</svg>
