<svg width="24" height="24" viewBox="0 0 24 24" fill="none" xmlns="http://www.w3.org/2000/svg">
<path fill-rule="evenodd" clip-rule="evenodd" d="M15.337 2.76303C15.468 2.37008 15.8928 2.15771 16.2857 2.28869L16.4397 2.34001C18.4552 3.01187 20.0369 4.5935 20.7087 6.60908L20.7601 6.76303C20.891 7.15599 20.6787 7.58073 20.2857 7.71172C19.8928 7.8427 19.468 7.63033 19.337 7.23737L19.2857 7.08342C18.7632 5.51575 17.533 4.28559 15.9653 3.76303L15.8114 3.71172C15.4184 3.58073 15.206 3.15599 15.337 2.76303Z" fill="black"/>
<path fill-rule="evenodd" clip-rule="evenodd" d="M8.76014 2.76303C8.62915 2.37008 8.20441 2.15771 7.81145 2.28869L7.6575 2.34001C5.64192 3.01187 4.06029 4.5935 3.38843 6.60908L3.33711 6.76303C3.20613 7.15599 3.4185 7.58073 3.81145 7.71172C4.20441 7.8427 4.62915 7.63033 4.76014 7.23737L4.81145 7.08342C5.33401 5.51575 6.56417 4.28559 8.13185 3.76303L8.2858 3.71172C8.67875 3.58073 8.89112 3.15599 8.76014 2.76303Z" fill="black"/>
<path fill-rule="evenodd" clip-rule="evenodd" d="M9.29829 4.54969C9.5073 3.24601 10.6373 2.25 11.9999 2.25C13.3625 2.25 14.4924 3.24601 14.7014 4.54969C16.5693 5.35443 17.9746 6.99155 18.2047 9.01871L18.596 12.4663C18.6488 12.9315 18.8459 13.3854 19.1792 13.777C19.8759 14.5954 19.8978 15.6243 19.4437 16.4246C18.9969 17.2119 18.114 17.75 17.0549 17.75H6.94482C5.88575 17.75 5.00283 17.2119 4.55606 16.4246C4.10189 15.6243 4.12386 14.5954 4.82056 13.777C5.15385 13.3854 5.35096 12.9315 5.40376 12.4663L5.79505 9.01871C6.02513 6.99155 7.43041 5.35443 9.29829 4.54969ZM11.9999 3.75C11.3171 3.75 10.7637 4.30347 10.7637 4.9862V5.07695C10.7637 5.39753 10.5599 5.68267 10.2566 5.78652C8.60728 6.35122 7.45836 7.66468 7.28548 9.18787L6.89419 12.6354C6.80605 13.412 6.47939 14.1424 5.96278 14.7493C5.69959 15.0584 5.69821 15.398 5.86063 15.6843C6.03046 15.9835 6.40406 16.25 6.94482 16.25H17.0549C17.5957 16.25 17.9693 15.9835 18.1391 15.6843C18.3015 15.398 18.3001 15.0584 18.0369 14.7493C17.5203 14.1424 17.1937 13.412 17.1055 12.6354L16.7142 9.18787C16.5414 7.66468 15.3924 6.35122 13.7431 5.78652C13.4398 5.68267 13.2361 5.39753 13.2361 5.07695V4.9862C13.2361 4.30347 12.6826 3.75 11.9999 3.75Z" fill="black"/>
<path fill-rule="evenodd" clip-rule="evenodd" d="M10.8472 19C10.8472 19.6904 11.4068 20.25 12.0972 20.25C12.7875 20.25 13.3472 19.6904 13.3472 19H14.8472C14.8472 20.5188 13.616 21.75 12.0972 21.75C10.5784 21.75 9.34717 20.5188 9.34717 19H10.8472Z" fill="black"/>
</svg>
