<svg width="21" height="20" viewBox="0 0 21 20" fill="none" xmlns="http://www.w3.org/2000/svg">
<path fill-rule="evenodd" clip-rule="evenodd" d="M10.0578 8.95834C9.48248 8.95834 9.01611 9.42471 9.01611 10C9.01611 10.5753 9.48248 11.0417 10.0578 11.0417C10.6331 11.0417 11.0994 10.5753 11.0994 10C11.0994 9.42471 10.6331 8.95834 10.0578 8.95834ZM7.76611 10C7.76611 8.73436 8.79213 7.70834 10.0578 7.70834C11.3234 7.70834 12.3494 8.73436 12.3494 10C12.3494 11.2657 11.3234 12.2917 10.0578 12.2917C8.79213 12.2917 7.76611 11.2657 7.76611 10Z" fill="black"/>
<path fill-rule="evenodd" clip-rule="evenodd" d="M10.0578 2.29166C9.48248 2.29166 9.01611 2.75803 9.01611 3.33332C9.01611 3.90862 9.48248 4.37499 10.0578 4.37499C10.6331 4.37499 11.0994 3.90862 11.0994 3.33332C11.0994 2.75803 10.6331 2.29166 10.0578 2.29166ZM7.76611 3.33332C7.76611 2.06767 8.79213 1.04166 10.0578 1.04166C11.3234 1.04166 12.3494 2.06767 12.3494 3.33332C12.3494 4.59898 11.3234 5.62499 10.0578 5.62499C8.79213 5.62499 7.76611 4.59898 7.76611 3.33332Z" fill="black"/>
<path fill-rule="evenodd" clip-rule="evenodd" d="M10.0578 15.625C9.48248 15.625 9.01611 16.0914 9.01611 16.6667C9.01611 17.242 9.48248 17.7083 10.0578 17.7083C10.6331 17.7083 11.0994 17.242 11.0994 16.6667C11.0994 16.0914 10.6331 15.625 10.0578 15.625ZM7.76611 16.6667C7.76611 15.401 8.79213 14.375 10.0578 14.375C11.3234 14.375 12.3494 15.401 12.3494 16.6667C12.3494 17.9323 11.3234 18.9583 10.0578 18.9583C8.79213 18.9583 7.76611 17.9323 7.76611 16.6667Z" fill="black"/>
</svg>
