<svg width="24" height="24" viewBox="0 0 24 24" fill="none" xmlns="http://www.w3.org/2000/svg">
<path fill-rule="evenodd" clip-rule="evenodd" d="M5.08012 11.0381C2.81622 9.52887 3.88468 6 6.60555 6H17.3944C20.1153 6 21.1838 9.52887 18.9199 11.0381L18.75 11.1514V17.75C18.75 20.3734 16.6233 22.5 14 22.5H10C7.37664 22.5 5.25 20.3734 5.25 17.75V11.1514L5.08012 11.0381ZM6.60555 7.5C5.36879 7.5 4.88313 9.10403 5.91217 9.79006L6.41602 10.126C6.62467 10.2651 6.75 10.4992 6.75 10.75V17.75C6.75 19.5449 8.20507 21 10 21H14C15.7949 21 17.25 19.5449 17.25 17.75V10.75C17.25 10.4992 17.3753 10.2651 17.584 10.126L18.0878 9.79006C19.1169 9.10403 18.6312 7.5 17.3944 7.5H6.60555Z" fill="black"/>
<path fill-rule="evenodd" clip-rule="evenodd" d="M14 11C14.4142 11 14.75 11.3358 14.75 11.75L14.75 16.75C14.75 17.1642 14.4142 17.5 14 17.5C13.5858 17.5 13.25 17.1642 13.25 16.75L13.25 11.75C13.25 11.3358 13.5858 11 14 11Z" fill="black"/>
<path fill-rule="evenodd" clip-rule="evenodd" d="M10 11C10.4142 11 10.75 11.3358 10.75 11.75L10.75 16.75C10.75 17.1642 10.4142 17.5 10 17.5C9.58579 17.5 9.25 17.1642 9.25 16.75L9.25 11.75C9.25 11.3358 9.58579 11 10 11Z" fill="black"/>
<path fill-rule="evenodd" clip-rule="evenodd" d="M12 1C9.92893 1 8.25 2.67893 8.25 4.75H9.75C9.75 3.50736 10.7574 2.5 12 2.5C13.2426 2.5 14.25 3.50736 14.25 4.75H15.75C15.75 2.67893 14.0711 1 12 1Z" fill="black"/>
</svg>
