<svg width="24" height="24" viewBox="0 0 24 24" fill="none" xmlns="http://www.w3.org/2000/svg">
<path fill-rule="evenodd" clip-rule="evenodd" d="M8.79988 14.4031C7.97478 14.8156 7.75 15.2468 7.75 15.5C7.75 15.7532 7.97478 16.1844 8.79988 16.5969C9.58011 16.9871 10.7105 17.25 12 17.25C13.2895 17.25 14.4199 16.9871 15.2001 16.5969C16.0252 16.1844 16.25 15.7532 16.25 15.5C16.25 15.2468 16.0252 14.8156 15.2001 14.4031C14.4199 14.0129 13.2895 13.75 12 13.75C10.7105 13.75 9.58011 14.0129 8.79988 14.4031ZM8.12906 13.0614C9.15847 12.5467 10.5281 12.25 12 12.25C13.4719 12.25 14.8415 12.5467 15.8709 13.0614C16.8555 13.5537 17.75 14.3725 17.75 15.5C17.75 16.6275 16.8555 17.4463 15.8709 17.9386C14.8415 18.4533 13.4719 18.75 12 18.75C10.5281 18.75 9.15847 18.4533 8.12906 17.9386C7.14451 17.4463 6.25 16.6275 6.25 15.5C6.25 14.3725 7.14451 13.5537 8.12906 13.0614Z" fill="black"/>
<path fill-rule="evenodd" clip-rule="evenodd" d="M12 6.75C11.3096 6.75 10.75 7.30964 10.75 8C10.75 8.69036 11.3096 9.25 12 9.25C12.6904 9.25 13.25 8.69036 13.25 8C13.25 7.30964 12.6904 6.75 12 6.75ZM9.25 8C9.25 6.48122 10.4812 5.25 12 5.25C13.5188 5.25 14.75 6.48122 14.75 8C14.75 9.51878 13.5188 10.75 12 10.75C10.4812 10.75 9.25 9.51878 9.25 8Z" fill="black"/>
<path fill-rule="evenodd" clip-rule="evenodd" d="M2.25 12C2.25 6.61522 6.61522 2.25 12 2.25C17.3848 2.25 21.75 6.61522 21.75 12C21.75 17.3848 17.3848 21.75 12 21.75C6.61522 21.75 2.25 17.3848 2.25 12ZM12 3.75C7.44365 3.75 3.75 7.44365 3.75 12C3.75 16.5563 7.44365 20.25 12 20.25C16.5563 20.25 20.25 16.5563 20.25 12C20.25 7.44365 16.5563 3.75 12 3.75Z" fill="black"/>
</svg>
